# File created by Blade
# Date/Time:  Wed Jan 21 17:57:11 2015
# Frame Rate: 120.000 fps
#------------------------------------------------------
:FULLY-SPECIFIED
:DEGREES
1498
root 18.909430 29.796978 -16.155198 -109.006376 40.692683 -182.563965
Spine 61.367696 -16.098361 24.212685
Head 134.352607 53.864002 185.763102
LeftShoulder 33.501110 -51.185668 28.819309
LeftArm 36.719872 -27.298602 -4.329098
LeftForeArm 12.532601 -0.000000 80.365759
LeftHand -14.230012 -0.000000 -28.895459
LeftHandThumb1 -26.253704 0.000000 33.147579
RightShoulder 20.502793 12.969945 -21.589039
RightArm 40.043475 67.705966 26.267366
RightForeArm 34.478380 -0.000000 59.343861
RightHand 5.129178 -0.000000 18.294050
RightHandThumb1 -24.326973 -0.000000 -32.862282
LeftUpLeg -63.334314 38.360552 -23.782153
LeftLeg -5.048337 -0.000000 0.000000
LeftFoot -19.377787 12.404074 -27.059239
LeftToeBase 31.722799 -0.000000 -0.000000
RightUpLeg -95.420860 -21.365781 -25.926718
RightLeg 7.498805 -0.000000 -0.000000
RightFoot -4.577244 -10.128662 21.408960
RightToeBase 23.782204 -0.000000 -0.000000
1499
root 18.909453 29.798606 -16.149070 -109.022251 40.640991 -182.558267
Spine 61.357893 -16.102537 24.192238
Head 134.685850 53.438162 186.055315
LeftShoulder 33.529037 -51.053330 28.814864
LeftArm 36.818085 -27.390561 -4.364044
LeftForeArm 12.513774 0.000000 80.215585
LeftHand -14.174247 -0.000000 -28.832486
LeftHandThumb1 -26.253704 0.000000 33.147579
RightShoulder 20.578880 12.957175 -21.581252
RightArm 40.052853 67.803894 26.326566
RightForeArm 34.348395 0.000000 59.246624
RightHand 5.109737 -0.000000 18.447220
RightHandThumb1 -24.326973 -0.000000 -32.862282
LeftUpLeg -63.343165 38.364592 -23.750100
LeftLeg -5.044990 -0.000000 0.000000
LeftFoot -19.360540 12.370351 -27.064370
LeftToeBase 31.932351 -0.000000 -0.000000
RightUpLeg -95.361540 -21.364399 -25.884604
RightLeg 7.430163 -0.000000 -0.000000
RightFoot -4.562947 -10.096651 21.394379
RightToeBase 23.705606 -0.000000 -0.000000
1500
root 18.909716 29.800467 -16.142650 -109.036827 40.579405 -182.553038
Spine 61.354468 -16.117087 24.172452
Head 134.995567 53.113143 186.292798
LeftShoulder 33.566748 -50.935535 28.731003
LeftArm 36.995643 -27.446241 -4.366472
LeftForeArm 12.447799 0.000000 79.983243
LeftHand -14.099679 -0.000000 -28.761238
LeftHandThumb1 -26.253704 0.000000 33.147579
RightShoulder 20.626127 12.944765 -21.583685
RightArm 40.218917 67.904851 26.532435
RightForeArm 34.146701 -0.000000 59.124019
RightHand 5.104794 -0.000000 18.630423
RightHandThumb1 -24.326973 -0.000000 -32.862282
LeftUpLeg -63.380185 38.373219 -23.736173
LeftLeg -5.026818 -0.000000 0.000000
LeftFoot -19.338502 12.347750 -27.027498
LeftToeBase 31.825136 -0.000000 -0.000000
RightUpLeg -95.301192 -21.362853 -25.808905
RightLeg 7.342033 -0.000000 -0.000000
RightFoot -4.542347 -10.075115 21.364208
RightToeBase 23.629151 -0.000000 -0.000000
1501
root 18.912092 29.803246 -16.134070 -109.032067 40.511552 -182.528043
Spine 61.324192 -16.095406 24.169673
Head 135.415623 52.551151 186.674655
LeftShoulder 33.688513 -51.183429 28.539058
LeftArm 37.246273 -27.111313 -4.717044
LeftForeArm 12.507565 -0.000000 79.758182
LeftHand -14.041579 -0.000000 -28.719731
LeftHandThumb1 -26.253704 0.000000 33.147579
RightShoulder 20.706614 12.962258 -21.531675
RightArm 40.340692 67.993839 26.688366
RightForeArm 33.866668 -0.000000 58.950031
RightHand 5.164971 0.000000 18.912478
RightHandThumb1 -24.326973 -0.000000 -32.862282
LeftUpLeg -63.446286 38.394066 -23.723136
LeftLeg -4.992085 -0.000000 0.000000
LeftFoot -19.321516 12.326538 -26.996337
LeftToeBase 31.776434 -0.000000 -0.000000
RightUpLeg -95.244355 -21.350660 -25.749174
RightLeg 7.262517 -0.000000 -0.000000
RightFoot -4.557026 -10.097823 21.282465
RightToeBase 23.695708 -0.000000 -0.000000
1502
root 18.914089 29.806163 -16.125361 -109.029041 40.445006 -182.513126
Spine 61.298090 -16.073144 24.149493
Head 135.839046 51.961441 187.057327
LeftShoulder 33.885110 -51.267714 28.244199
LeftArm 37.546458 -26.907173 -4.814768
LeftForeArm 12.443770 -0.000000 79.393332
LeftHand -13.921359 0.000000 -28.645009
LeftHandThumb1 -26.253704 0.000000 33.147579
RightShoulder 20.778064 12.963800 -21.458685
RightArm 40.500349 68.069609 26.819976
RightForeArm 33.737592 -0.000000 58.720970
RightHand 5.168327 -0.000000 19.138191
RightHandThumb1 -24.326973 -0.000000 -32.862282
LeftUpLeg -63.543391 38.415109 -23.748513
LeftLeg -4.944685 -0.000000 0.000000
LeftFoot -19.307879 12.297608 -26.987515
LeftToeBase 31.850258 -0.000000 -0.000000
RightUpLeg -95.187502 -21.344025 -25.671567
RightLeg 7.164009 -0.000000 -0.000000
RightFoot -4.536045 -10.115467 21.240407
RightToeBase 23.585672 -0.000000 -0.000000
1503
root 18.916443 29.809690 -16.115588 -109.044798 40.367803 -182.494164
Spine 61.302291 -16.050682 24.125023
Head 136.172521 51.659049 187.305545
LeftShoulder 33.947881 -51.176426 28.091332
LeftArm 37.942401 -26.898001 -4.900453
LeftForeArm 12.240588 -0.000000 78.933543
LeftHand -13.881430 0.000000 -28.710718
LeftHandThumb1 -26.253704 0.000000 33.147579
RightShoulder 20.848115 12.975707 -21.441689
RightArm 40.605639 68.202140 26.975147
RightForeArm 33.480170 -0.000000 58.438617
RightHand 5.277774 -0.000000 19.537228
RightHandThumb1 -24.326973 -0.000000 -32.862282
LeftUpLeg -63.600417 38.431938 -23.719898
LeftLeg -4.898124 -0.000000 0.000000
LeftFoot -19.269565 12.279284 -26.918724
LeftToeBase 31.786369 -0.000000 -0.000000
RightUpLeg -95.122369 -21.325706 -25.549350
RightLeg 7.051612 -0.000000 -0.000000
RightFoot -4.516877 -10.115125 21.190368
RightToeBase 23.721552 -0.000000 -0.000000
1504
root 18.918982 29.815069 -16.103464 -109.054929 40.280869 -182.455670
Spine 61.351164 -16.033666 24.076494
Head 136.779201 51.164531 187.747645
LeftShoulder 33.913206 -50.485002 28.053816
LeftArm 38.366954 -27.463127 -4.441626
LeftForeArm 11.747148 -0.000000 78.263636
LeftHand -13.762576 -0.000000 -28.474674
LeftHandThumb1 -26.253704 0.000000 33.147579
RightShoulder 20.875500 12.945550 -21.494807
RightArm 41.062525 68.419339 27.519355
RightForeArm 33.069711 -0.000000 58.132718
RightHand 5.318443 -0.000000 19.813454
RightHandThumb1 -24.326973 -0.000000 -32.862282
LeftUpLeg -63.659581 38.456919 -23.665173
LeftLeg -4.834104 -0.000000 0.000000
LeftFoot -19.255870 12.252892 -26.887902
LeftToeBase 31.906493 -0.000000 -0.000000
RightUpLeg -95.051058 -21.289218 -25.440146
RightLeg 6.965420 -0.000000 -0.000000
RightFoot -4.473898 -10.113848 21.267905
RightToeBase 23.394735 -0.000000 -0.000000
